<?xml version="1.0" standalone="no"?>
<!DOCTYPE svg PUBLIC "-//W3C//DTD SVG 20010904//EN"
        "http://www.w3.org/TR/2001/REC-SVG-20010904/DTD/svg10.dtd">
<svg version="1.0" xmlns="http://www.w3.org/2000/svg"
     width="512.000000pt" height="512.000000pt" viewBox="0 0 512.000000 512.000000"
     preserveAspectRatio="xMidYMid meet">
    <metadata>
        Created by potrace 1.16, written by Peter Selinger 2001-2019
    </metadata>
    <g transform="translate(0.000000,512.000000) scale(0.100000,-0.100000)"
       fill="#000000" stroke="none">
        <path d="M2280 3730 c-90 -19 -190 -54 -269 -95 -101 -50 -258 -165 -331 -241
-72 -74 -74 -77 -52 -87 28 -13 27 -14 -41 -110 -87 -121 -142 -252 -172 -410
-16 -82 -20 -213 -8 -280 10 -66 23 -19 23 89 0 228 60 405 213 634 100 151
197 258 287 320 58 40 180 104 180 95 0 -3 11 2 25 11 20 13 25 13 25 3 1 -10
4 -8 11 4 12 20 29 23 28 5 0 -7 -30 -27 -67 -45 -79 -38 -186 -108 -261 -172
-52 -44 -141 -153 -141 -172 0 -5 44 36 97 91 236 246 517 354 834 321 260
-27 482 -132 659 -310 151 -152 241 -320 282 -524 25 -129 9 -407 -33 -568
-12 -48 -14 -44 25 -67 l35 -21 17 46 c17 44 17 46 -1 59 -10 7 -21 15 -25 16
-4 2 1 43 11 92 39 195 34 366 -17 543 -116 403 -465 710 -889 778 -126 21
-338 18 -445 -5z"/>
        <path d="M2401 3555 c-126 -28 -235 -73 -331 -138 -95 -64 -253 -236 -299
-324 -20 -40 -5 -25 31 30 46 69 154 183 220 235 168 129 340 192 530 192 167
0 327 -44 468 -129 78 -47 101 -43 33 6 -90 65 -202 110 -327 132 -81 15 -247
12 -325 -4z"/>
        <path d="M3510 3420 c158 -193 249 -401 280 -640 29 -225 -12 -453 -121 -676
-45 -93 -180 -258 -300 -367 -347 -317 -764 -415 -1214 -283 -11 4 -6 0 11 -8
39 -19 210 -55 284 -61 30 -2 81 -6 113 -10 44 -4 57 -3 51 6 -5 9 6 10 44 5
36 -5 52 -3 56 6 4 9 8 9 11 2 19 -37 387 85 377 126 -1 6 2 9 7 6 14 -9 42 5
34 17 -3 6 -1 7 6 3 14 -9 83 32 76 44 -3 5 0 12 6 16 8 4 9 3 5 -4 -16 -26
15 -10 41 22 15 19 55 57 89 85 109 92 271 296 325 408 43 89 86 221 104 316
17 91 20 302 5 394 -36 223 -146 449 -295 608 l-56 60 61 -75z"/>
        <path d="M2405 3396 c-240 -56 -424 -204 -536 -431 -22 -44 -45 -104 -51 -132
-12 -50 -15 -53 -43 -53 -55 0 -60 9 -48 94 7 49 24 104 47 154 39 84 14 62
-28 -24 -73 -148 -92 -361 -48 -518 48 -168 152 -336 264 -426 170 -137 348
-200 560 -200 241 0 424 78 611 259 201 195 298 454 267 718 -20 177 -95 327
-226 453 -54 51 -58 54 -23 15 131 -146 212 -326 228 -506 l7 -79 -46 52 c-25
28 -48 58 -52 67 -4 9 -7 -13 -8 -49 -1 -36 -5 -83 -9 -105 -7 -34 -9 -25 -10
50 -1 50 -9 119 -17 155 -9 36 -17 75 -17 87 -1 11 -6 19 -11 15 -5 -3 -6 2
-3 12 4 9 3 15 -2 12 -5 -3 -12 1 -15 10 -4 10 -2 13 7 9 6 -4 1 3 -13 15 -14
12 -18 18 -10 14 15 -8 4 5 -86 105 -83 91 -202 166 -334 211 -83 28 -266 36
-355 16z m257 -157 c116 -25 244 -107 291 -187 l17 -31 -66 35 c-54 28 -76 34
-127 34 -117 -1 -197 -61 -197 -148 -1 -96 -58 -169 -152 -192 -42 -11 -52
-10 -92 9 -29 15 -48 32 -57 53 -7 17 -15 26 -17 20 -6 -20 51 -113 91 -147
74 -63 173 -70 269 -18 70 38 103 84 103 144 0 36 -6 53 -24 73 -14 14 -20 26
-14 26 21 0 63 -62 79 -117 43 -147 -41 -300 -211 -384 -65 -32 -76 -34 -170
-34 -94 0 -104 2 -175 36 -93 45 -157 101 -195 170 -41 75 -47 197 -16 292 57
171 209 315 384 362 64 17 207 19 279 4z m523 -232 c77 -168 70 -403 -18 -573
-28 -53 -182 -194 -267 -244 -111 -64 -172 -82 -296 -88 -132 -5 -232 16 -353
75 -104 50 -229 173 -258 253 -22 59 -38 170 -26 170 5 0 24 -28 43 -62 42
-75 157 -194 224 -233 252 -146 599 -63 761 181 61 91 88 182 89 294 0 58 -6
117 -16 152 l-16 58 47 34 c25 20 50 36 54 36 4 0 19 -24 32 -53z m-1216 -572
c161 -325 560 -453 891 -285 73 37 125 76 197 148 37 37 57 53 45 35 -33 -47
-142 -143 -206 -182 -142 -85 -340 -120 -496 -87 -260 55 -479 288 -504 536
l-6 55 20 -70 c10 -38 37 -106 59 -150z m1288 183 c-3 -8 -6 -5 -6 6 -1 11 2
17 5 13 3 -3 4 -12 1 -19z"/>
        <path d="M1142 3108 c-118 -217 -165 -438 -142 -668 28 -286 114 -532 270
-770 74 -113 258 -301 368 -375 l73 -49 24 29 c55 68 56 64 -37 156 -125 125
-296 320 -356 407 -107 154 -201 380 -242 584 -43 210 -15 500 68 706 12 28
20 52 18 52 -2 0 -22 -33 -44 -72z"/>
        <path d="M1427 3112 c-96 -215 -112 -287 -112 -517 0 -168 3 -199 23 -269 55
-191 135 -317 331 -519 135 -139 241 -213 419 -291 232 -101 505 -120 749 -51
175 50 381 170 519 303 56 53 224 274 255 334 15 30 16 37 4 42 -9 3 -24 -11
-42 -39 -15 -25 -33 -46 -39 -47 -6 -2 -41 -43 -79 -93 -86 -114 -128 -158
-173 -181 -20 -11 -60 -38 -89 -61 -223 -178 -547 -265 -818 -218 -190 33
-372 111 -526 227 -50 37 -89 61 -89 53 0 -35 -27 -22 -96 46 -41 41 -72 80
-69 87 2 6 -15 43 -39 80 -64 99 -113 201 -151 315 -93 279 -86 466 25 750 41
105 39 143 -3 49z m154 -1179 c13 -16 12 -17 -3 -4 -10 7 -18 15 -18 17 0 8 8
3 21 -13z"/>
        <path d="M4002 3113 c-34 -15 -52 -28 -49 -36 13 -35 48 -171 62 -242 23 -113
30 -330 16 -452 -10 -86 -44 -239 -66 -294 -5 -12 7 -22 46 -38 61 -27 59 -29
90 84 40 149 51 235 52 410 1 191 -24 366 -71 511 l-27 81 -53 -24z"/>
        <path d="M1740 3040 c-6 -11 -8 -20 -6 -20 3 0 10 9 16 20 6 11 8 20 6 20 -3
0 -10 -9 -16 -20z"/>
        <path d="M3610 3025 c0 -5 5 -17 10 -25 5 -8 10 -10 10 -5 0 6 -5 17 -10 25
-5 8 -10 11 -10 5z"/>
        <path d="M3271 2874 c0 -11 3 -14 6 -6 3 7 2 16 -1 19 -3 4 -6 -2 -5 -13z"/>
        <path d="M1302 2395 c0 -11 4 -31 8 -45 6 -20 8 -21 8 -5 0 11 -4 31 -8 45 -6
20 -8 21 -8 5z"/>
        <path d="M1320 2313 c-1 -41 97 -260 141 -313 21 -24 20 -24 0 10 -43 70 -75
137 -107 225 -18 50 -33 85 -34 78z"/>
        <path d="M2070 1480 c8 -5 20 -10 25 -10 6 0 3 5 -5 10 -8 5 -19 10 -25 10 -5
0 -3 -5 5 -10z"/>
        <path d="M3505 1350 c-9 -14 -146 -110 -157 -110 -5 0 -6 5 -3 10 4 6 -38 -12
-92 -39 -99 -49 -296 -121 -334 -121 -11 0 -18 -4 -15 -8 3 -5 -9 -7 -27 -4
-24 2 -28 1 -17 -7 11 -8 4 -9 -25 -5 -22 3 -35 2 -28 -3 12 -8 9 -9 -252 -13
-174 -3 -281 11 -440 54 -105 30 -129 27 -28 -3 147 -44 220 -56 468 -77 122
-10 273 -6 345 10 139 31 175 38 184 36 5 -1 12 2 15 7 3 5 35 23 71 41 90 44
170 91 226 132 26 19 57 41 70 47 20 12 61 63 50 63 -3 0 -8 -5 -11 -10z
m-738 -306 c-3 -3 -12 -4 -19 -1 -8 3 -5 6 6 6 11 1 17 -2 13 -5z m-84 -11
c-7 -2 -21 -2 -30 0 -10 3 -4 5 12 5 17 0 24 -2 18 -5z"/>
    </g>
</svg>